<svg xmlns="http://www.w3.org/2000/svg" viewBox="0 0 20 14" width="20" height="14">
  <rect width="20" height="1.08" fill="#bf0a30"/><rect y="1.08" width="20" height="1.08" fill="#fff"/>
  <rect y="2.16" width="20" height="1.08" fill="#bf0a30"/><rect y="3.24" width="20" height="1.08" fill="#fff"/>
  <rect y="4.32" width="20" height="1.08" fill="#bf0a30"/><rect y="5.4" width="20" height="1.08" fill="#fff"/>
  <rect y="6.48" width="20" height="1.08" fill="#bf0a30"/><rect y="7.56" width="20" height="1.08" fill="#fff"/>
  <rect y="8.64" width="20" height="1.08" fill="#bf0a30"/><rect y="9.72" width="20" height="1.08" fill="#fff"/>
  <rect y="10.8" width="20" height="1.08" fill="#bf0a30"/><rect y="11.88" width="20" height="1.08" fill="#fff"/>
  <rect y="12.96" width="20" height="1.04" fill="#bf0a30"/>
  <rect width="7.7" height="7.56" fill="#002868"/>
  <circle cx="1.54" cy="1.54" r="0.4" fill="#fff"/><circle cx="3.85" cy="1.54" r="0.4" fill="#fff"/>
  <circle cx="6.16" cy="1.54" r="0.4" fill="#fff"/><circle cx="2.7" cy="2.7" r="0.4" fill="#fff"/>
  <circle cx="5" cy="2.7" r="0.4" fill="#fff"/><circle cx="1.54" cy="3.85" r="0.4" fill="#fff"/>
  <circle cx="3.85" cy="3.85" r="0.4" fill="#fff"/><circle cx="6.16" cy="3.85" r="0.4" fill="#fff"/>
  <circle cx="2.7" cy="5" r="0.4" fill="#fff"/><circle cx="5" cy="5" r="0.4" fill="#fff"/>
  <circle cx="1.54" cy="6.16" r="0.4" fill="#fff"/><circle cx="3.85" cy="6.16" r="0.4" fill="#fff"/>
  <circle cx="6.16" cy="6.16" r="0.4" fill="#fff"/>
</svg>
